<svg width="25" height="25" viewBox="0 0 25 25" fill="none" xmlns="http://www.w3.org/2000/svg">
<path d="M8.59375 5.46875C4.71094 5.46875 1.5625 8.61719 1.5625 12.5C1.5625 16.3828 4.71094 19.5312 8.59375 19.5312C12.4766 19.5312 15.625 16.3828 15.625 12.5C15.625 12.0176 15.5723 11.5469 15.4805 11.0938L15.4414 10.9375H8.59375V13.2812H13.2812C12.9082 15.498 10.916 17.1875 8.59375 17.1875C6.00391 17.1875 3.90625 15.0898 3.90625 12.5C3.90625 9.91016 6.00391 7.8125 8.59375 7.8125C9.76562 7.8125 10.834 8.24609 11.6562 8.95703L13.3359 7.3125C12.0859 6.16797 10.4219 5.46875 8.59375 5.46875ZM19.5312 8.59375V10.9375H17.1875V12.5H19.5312V14.8438H21.0938V12.5H23.4375V10.9375H21.0938V8.59375H19.5312Z" fill="white"/>
</svg>
