<svg width="20" height="20" viewBox="0 0 20 20" fill="none" xmlns="http://www.w3.org/2000/svg">
<path d="M6.4 1.19995C3.532 1.19995 1.2 3.53195 1.2 6.39995V13.6C1.2 16.468 3.532 18.8 6.4 18.8H13.6C16.468 18.8 18.8 16.468 18.8 13.6V6.39995C18.8 3.53195 16.468 1.19995 13.6 1.19995H6.4ZM14.8 4.39995C15.24 4.39995 15.6 4.75995 15.6 5.19995C15.6 5.63995 15.24 5.99995 14.8 5.99995C14.36 5.99995 14 5.63995 14 5.19995C14 4.75995 14.36 4.39995 14.8 4.39995ZM10 5.59995C12.428 5.59995 14.4 7.57195 14.4 9.99995C14.4 12.428 12.428 14.4 10 14.4C7.572 14.4 5.6 12.428 5.6 9.99995C5.6 7.57195 7.572 5.59995 10 5.59995ZM10 6.39995C8.016 6.39995 6.4 8.01595 6.4 9.99995C6.4 11.984 8.016 13.6 10 13.6C11.984 13.6 13.6 11.984 13.6 9.99995C13.6 8.01595 11.984 6.39995 10 6.39995Z" fill="white"/>
</svg>
