<svg width="257" height="228" viewBox="0 0 257 228" fill="none" xmlns="http://www.w3.org/2000/svg">
<path d="M184.398 0.867188C185.711 1.38281 186.367 1.875 186.367 2.34375C182.008 8.76563 179.477 11.9766 178.773 11.9766C176.617 11.9766 174.766 13.8281 173.219 17.5312C161.734 33.9375 145.562 68.3672 124.703 120.82C105.578 170.93 91.2344 204.844 81.6719 222.562C79.1406 225.938 76.6094 227.625 74.0781 227.625C71.2656 227.625 69.2266 226.289 67.9609 223.617C65.8984 217.805 64.8672 208.008 64.8672 194.227C64.8672 187.758 65.8984 155.859 67.9609 98.5312V98.0391C67.9609 96.9609 67.7734 94.1016 67.3984 89.4609C61.7734 96.7734 48.2734 124.617 26.8984 172.992C17.6172 192.398 11.4062 202.711 8.26562 203.93H4.67969C2.00781 203.93 0.671875 201.047 0.671875 195.281C0.671875 184.312 6.03906 151.406 16.7734 96.5625C17.8516 89.1094 19.7266 85.3828 22.3984 85.3828H22.8906C25.2344 86.1328 26.4062 88.1719 26.4062 91.5V92.5547H23.4531C22.6094 92.5547 20.9219 100.805 18.3906 117.305C9.95312 156.539 5.73438 183.188 5.73438 197.25C5.73438 197.531 5.875 198.562 6.15625 200.344H6.64844C16.3047 184.453 31.1875 153.727 51.2969 108.164C58.75 92.6953 64.1172 84.9609 67.3984 84.9609H68.4531C71.5 84.9609 73.0234 88.9922 73.0234 97.0547V99.5859C70.9609 153.398 69.9297 184.805 69.9297 193.805V197.25C69.9297 210.141 71.125 219.258 73.5156 224.602H74.0781C78.8594 220.383 91.3281 192.703 111.484 141.562C134.359 81.3281 153.953 38.6484 170.266 13.5234C176.641 5.08594 181.352 0.867188 184.398 0.867188ZM133.281 142.125H134.195C136.961 142.406 138.344 143.602 138.344 145.711C138.344 147.539 134.617 149.531 127.164 151.688C125.477 155.344 124.633 157.711 124.633 158.789H125.125C129.203 158.508 134.758 155.297 141.789 149.156H143.406C144.016 149.25 144.32 149.602 144.32 150.211V151.195C137.57 157.945 131.664 161.32 126.602 161.32H123.648C121.258 161.32 120.062 160.336 120.062 158.367C120.062 156.539 120.906 154.5 122.594 152.25L122.102 151.195V150.211C122.805 150.211 125.336 147.867 129.695 143.18L133.281 142.125ZM131.242 147.188H131.664L133.773 145.148C132.227 145.805 131.383 146.484 131.242 147.188ZM184.609 53.5312H185.664C186.648 53.5312 187.141 54.1875 187.141 55.5C185.453 60.5156 181.891 67.1016 176.453 75.2578C176.453 76.0078 173.43 82.7578 167.383 95.5078C149.805 134.227 140.875 157.359 140.594 164.906C140.875 165.609 141.016 166.102 141.016 166.383H141.578C143.312 166.383 149.031 160.641 158.734 149.156C159.391 148.828 160.094 148.664 160.844 148.664H161.266C161.969 148.805 162.32 149.156 162.32 149.719V150.773C153.555 163.195 146.148 169.406 140.102 169.406C137.711 169.406 136.516 168.258 136.516 165.961V163.852C136.516 154.711 151.703 118.102 182.078 54.0234L184.609 53.5312ZM169.914 142.336C172.914 142.898 174.414 144.094 174.414 145.922C173.992 148.312 173.336 149.508 172.445 149.508H169.914C169.258 149.508 168.93 149.156 168.93 148.453C169.586 147.328 169.914 146.297 169.914 145.359C165.602 145.359 161.734 150.258 158.312 160.055C158.641 160.758 158.805 161.273 158.805 161.602H160.281C163.188 161.602 169.445 157.57 179.055 149.508C179.617 149.133 180.297 148.945 181.094 148.945H181.586C182.242 149.039 182.57 149.367 182.57 149.93V150.984C173.055 160.125 165.133 164.695 158.805 164.695C155.43 164.039 153.742 162.492 153.742 160.055C157.539 148.242 162.93 142.336 169.914 142.336ZM188.055 143.883C189.836 143.883 191.008 145.57 191.57 148.945C191.57 149.18 191.078 151.547 190.094 156.047C192.906 155.062 196.094 152.883 199.656 149.508C200.312 149.133 200.992 148.945 201.695 148.945C202.398 149.32 202.914 149.508 203.242 149.508V150.422C198.555 155.859 193.492 158.578 188.055 158.578C188.055 159.844 186.695 161.344 183.977 163.078H179.406C178.094 162.516 177.438 161.367 177.438 159.633V159.07C177.438 153.164 179.969 148.289 185.031 144.445L188.055 143.883ZM187 148.453V150.422H187.562V148.453H187ZM186.508 150.984V152.953H187V150.984H186.508ZM181.938 154.008L181.445 159.07V160.547H181.938C183.203 159.938 184.047 158.93 184.469 157.523C184.281 157.523 183.438 156.352 181.938 154.008ZM223.492 138.328H224.406C226.797 138.328 227.992 139.523 227.992 141.914C227.992 142.617 226.797 147.492 224.406 156.539L224.969 157.523C226.094 157.523 230.312 154.664 237.625 148.945H238.68C239.289 149.32 239.781 149.508 240.156 149.508V150.422C234.531 156.844 229.117 160.055 223.914 160.055C221.805 160.055 220.633 158.719 220.398 156.047L223.914 141.352C222.648 141.586 219.133 148.664 213.367 162.586L211.258 164.695H207.25C207.25 164.32 207.062 163.781 206.688 163.078L211.75 145.359C207.953 151.781 204.578 156.352 201.625 159.07H197.125V157.102C197.125 153.586 198.461 150.703 201.133 148.453C202.82 148.453 203.664 148.945 203.664 149.93C207.789 143.508 210.672 140.297 212.312 140.297H212.805C214.867 140.297 215.898 141.492 215.898 143.883V146.414H216.32C218.289 141.023 220.68 138.328 223.492 138.328ZM245.641 142.125H246.555C249.32 142.406 250.703 143.602 250.703 145.711C250.703 147.539 246.977 149.531 239.523 151.688C237.836 155.344 236.992 157.711 236.992 158.789H237.484C241.562 158.508 247.117 155.297 254.148 149.156H255.766C256.375 149.25 256.68 149.602 256.68 150.211V151.195C249.93 157.945 244.023 161.32 238.961 161.32H236.008C233.617 161.32 232.422 160.336 232.422 158.367C232.422 156.539 233.266 154.5 234.953 152.25L234.461 151.195V150.211C235.164 150.211 237.695 147.867 242.055 143.18L245.641 142.125ZM243.602 147.188H244.023L246.133 145.148C244.586 145.805 243.742 146.484 243.602 147.188Z" fill="white"/>
</svg>
